# xmcd
#
# Track frame offsets: 
#        150
#        14668
#        30057
#        43110
#        57689
#        74234
#        85591
#        98838
#        111214
#
# Disc length: 1680 seconds
#
# Revision: 0
# Processed by: cddbd v1.5.2PL0 Copyright (c) Steve Scherf et al.
# Submitted via: ExactAudioCopyFreeDBPlugin 1.0
#
DISCID=77068e09
DTITLE=Shane Morgan - I'm Getting Gone
DYEAR=2007
DGENRE=Country
TTITLE0=Back In The Saddle
TTITLE1=Wake Up Next to You
TTITLE2=I'm Getting Gone
TTITLE3=Mind Over Matter
TTITLE4=Hearts and Roses
TTITLE5=Moon in Memphis
TTITLE6=Mr. Saturday Night
TTITLE7=Bartender
TTITLE8=Until We Meet Again
EXTD=
EXTT0=
EXTT1=
EXTT2=
EXTT3=
EXTT4=
EXTT5=
EXTT6=
EXTT7=
EXTT8=
PLAYORDER=
